<svg width="54" height="65" viewBox="0 0 54 65" fill="none" xmlns="http://www.w3.org/2000/svg">
<path d="M52.55 50.0367C51.627 52.1883 50.4866 54.2401 49.1467 56.16C47.3567 58.7167 45.8867 60.4833 44.76 61.4667C43.01 63.0733 41.13 63.9 39.12 63.9467C37.68 63.9467 35.94 63.5367 33.9133 62.7033C31.88 61.8733 30.0133 61.4667 28.3033 61.4667C26.5133 61.4667 24.5933 61.8733 22.5367 62.7033C20.4833 63.5367 18.8233 63.9733 17.5533 64.0133C15.63 64.0967 13.7067 63.25 11.79 61.4667C10.5667 60.4 9.03666 58.5667 7.19999 55.9733C5.23332 53.21 3.61666 49.9933 2.34999 46.3367C0.993324 42.38 0.313324 38.5533 0.313324 34.8467C0.313324 30.6033 1.22999 26.94 3.06666 23.8733C4.45582 21.4649 6.44182 19.4548 8.83333 18.0367C11.1915 16.6222 13.8836 15.8606 16.6333 15.83C18.1667 15.83 20.1767 16.3033 22.6667 17.2367C25.1567 18.17 26.7567 18.6433 27.4533 18.6433C27.98 18.6433 29.75 18.0867 32.7633 16.9833C35.6067 15.96 38.0067 15.5367 39.9733 15.7033C45.3067 16.1333 49.31 18.2333 51.9733 22.02C47.2067 24.91 44.85 28.9533 44.8967 34.1433C44.9367 38.1867 46.4067 41.55 49.2867 44.22C50.5599 45.4384 52.0455 46.4134 53.67 47.0967C53.3167 48.12 52.9433 49.0967 52.55 50.0367ZM40.3267 1.93333C40.3267 5.1 39.1667 8.06 36.8633 10.7967C34.0767 14.05 30.71 15.9333 27.06 15.6367C27.0123 15.2385 26.9889 14.8377 26.99 14.4367C26.99 11.3933 28.31 8.14 30.6667 5.47666C31.84 4.13 33.3333 3.00666 35.1433 2.11333C36.95 1.23333 38.6567 0.746663 40.2633 0.66333C40.3067 1.09 40.3267 1.51333 40.3267 1.93333Z" fill="#868996"/>
</svg>
