<svg width="24" height="24" viewBox="0 0 24 24" fill="none" xmlns="http://www.w3.org/2000/svg">
<path d="M21.8055 10.0415H21V9.99998H12V14H17.6515C16.827 16.3285 14.6115 18 12 18C8.6865 18 6 15.3135 6 12C6 8.68648 8.6865 5.99998 12 5.99998C13.5295 5.99998 14.921 6.57698 15.9805 7.51948L18.809 4.69098C17.023 3.02648 14.634 1.99998 12 1.99998C6.4775 1.99998 2 6.47748 2 12C2 17.5225 6.4775 22 12 22C17.5225 22 22 17.5225 22 12C22 11.3295 21.931 10.675 21.8055 10.0415Z" fill="#FFC107"/>
<path d="M3.15295 7.34548L6.43845 9.75498C7.32745 7.55398 9.48045 5.99998 12 5.99998C13.5295 5.99998 14.921 6.57698 15.9805 7.51948L18.809 4.69098C17.023 3.02648 14.634 1.99998 12 1.99998C8.15895 1.99998 4.82795 4.16848 3.15295 7.34548Z" fill="#FF3D00"/>
<path d="M12 22C14.583 22 16.93 21.0115 18.7045 19.404L15.6095 16.785C14.5718 17.5742 13.3038 18.001 12 18C9.39903 18 7.19053 16.3415 6.35853 14.027L3.09753 16.5395C4.75253 19.778 8.11353 22 12 22Z" fill="#4CAF50"/>
<path d="M21.8055 10.0415H21V9.99998H12V14H17.6515C17.2571 15.1082 16.5467 16.0766 15.608 16.7855L15.6095 16.7845L18.7045 19.4035C18.4855 19.6025 22 17 22 12C22 11.3295 21.931 10.675 21.8055 10.0415Z" fill="#1976D2"/>
</svg>
