<svg width="120" height="50" viewBox="0 0 120 50" fill="none" xmlns="http://www.w3.org/2000/svg">
<path d="M0 45.7263H23.34V49.06H0V45.7263ZM0 39.3138H23.34V42.655H0V39.3138ZM6.64125 32.9088H16.6612V36.2687H6.64125V32.9088ZM6.64125 26.5263H16.6612V29.8863H6.64125V26.5263ZM6.64125 20.1138H16.6612V23.4738H6.64125V20.1138ZM6.64125 13.7088H16.6612V17.0688H6.64125V13.7088ZM0 7.32625H23.34V10.6863H0V7.32625ZM0 0.940004H23.34V4.27375H0V0.940004ZM26.6588 42.655H62.5387C63.1425 41.62 63.615 40.4913 63.885 39.3138H26.6588V42.655ZM59.745 26.5263H33.3412V29.8863H62.5613C61.8166 28.6234 60.8732 27.4889 59.7675 26.5263H59.745ZM33.3188 20.1138V23.4738H59.745C60.8813 22.54 61.7963 21.4038 62.5613 20.1138H33.3188ZM62.5387 7.32625H26.6588V10.6863H63.8625C63.5719 9.51261 63.1267 8.38274 62.5387 7.32625ZM51.525 0.940004H26.6588V4.27375H60.0788C57.7468 2.12859 54.6936 0.93861 51.525 0.940004ZM33.3188 13.7088H43.32V17.0688H33.3188V13.7088ZM53.34 17.0688H63.7912C64.0888 15.9735 64.2402 14.8437 64.2412 13.7088H53.34V17.0688ZM33.3188 32.9088H43.32V36.2687H33.3188V32.9088ZM53.34 32.9088V36.2687H64.2412C64.2412 35.1138 64.08 33.985 63.7912 32.9088H53.34ZM26.6588 49.045L51.5025 49.06C54.8438 49.06 57.8475 47.7963 60.0975 45.7263H26.6588V49.045ZM66.6787 45.7263H83.3175V49.06H66.6787V45.7263ZM66.6787 39.3138H83.3175V42.655H66.6787V39.3138ZM73.32 32.9088H83.3213V36.2687H73.32V32.9088ZM73.32 26.5263H83.3213V29.8863H73.32V26.5263ZM87.9713 7.32625H66.6825V10.6863H89.1225L87.9713 7.32625ZM85.7588 0.940004H66.6787V4.27375H86.9137L85.7588 0.940004ZM103.32 45.7263H120V49.06H103.32V45.7263ZM103.32 39.3138H120V42.655H103.32V39.3138ZM103.32 32.9088H113.321V36.2687H103.32V32.9088ZM103.32 26.5263H113.321V29.8863H103.32V26.5263ZM103.32 23.4738H113.321V20.1138H94.275L93.3187 22.8288L92.385 20.1138H73.32V23.4738H83.3213V20.3875L84.3975 23.4738H102.266L103.32 20.3875V23.4738ZM113.321 13.7088H96.4875L95.3325 17.0688H113.321V13.7088ZM100.92 0.940004L99.765 4.27375H120V0.940004H100.92ZM93.3187 49.045L94.4738 45.7263H92.1675L93.3187 49.045ZM91.1138 42.655H95.5425L96.7388 39.3138H89.94L91.1138 42.655ZM88.8638 36.2687H97.7925L98.9625 32.9088H87.6937L88.8638 36.2687ZM86.64 29.8863H100.039L101.168 26.5263H85.4888L86.64 29.8863ZM73.32 17.0688H91.3312L90.1763 13.7088H73.32V17.0688ZM97.56 10.6863H120V7.32625H98.6888L97.56 10.6863Z" fill="#868996"/>
</svg>
