<svg width="138" height="56" viewBox="0 0 138 56" fill="none" xmlns="http://www.w3.org/2000/svg">
<path d="M27.6383 5.25L7.86218 16.8443L20.2172 24.1057L27.6407 19.8123L35.504 24.1057L48.1402 16.8443L27.6383 5.25Z" stroke="white" stroke-linecap="round" stroke-linejoin="round"/>
<path d="M12.915 23.8279V41.4422L27.6383 50.7499L43.085 41.7234V23.6284L35.5016 27.7199V41.2241L27.6383 36.2891L20.2171 41.2649V27.7199L12.915 23.8279Z" stroke="white" stroke-linecap="round" stroke-linejoin="round"/>
<path d="M64.4 36.08L64.64 29.28C62.08 28.96 59.9333 28.0933 58.2 26.68C56.4667 25.2667 55.6 23.3733 55.6 21C55.6 19.0533 56.56 17.1733 58.48 15.36C60.4 13.52 62.6933 12.6 65.36 12.6C69.28 12.6 71.24 15.1467 71.24 20.24C71.24 21.7333 71.1333 24.0267 70.92 27.12C70.7333 30.1867 70.64 32.5067 70.64 34.08C70.64 35.6533 71.0667 36.44 71.92 36.44C72.4267 36.44 73.16 36.0133 74.12 35.16C75.1067 34.28 75.9333 33.3333 76.6 32.32C77.1867 26.2933 77.48 22.6933 77.48 21.52C77.48 20.3467 77.4667 19.5467 77.44 19.12C77.44 18.6933 77.4133 18.28 77.36 17.88C77.3333 17.48 77.3067 17.1867 77.28 17C77.28 16.7867 77.2267 16.5067 77.12 16.16C77.04 15.8133 76.9867 15.6133 76.96 15.56C76.96 15.5067 76.8933 15.28 76.76 14.88C76.6533 14.48 76.6 14.2667 76.6 14.24C77.96 13.52 80.1867 12.9733 83.28 12.6V12.64C83.5733 13.5733 83.72 14.92 83.72 16.68C83.72 18.4133 83.4533 21.44 82.92 25.76C82.3867 30.08 82.12 32.9467 82.12 34.36C82.12 35.7467 82.52 36.44 83.32 36.44C84.1467 36.44 85.1333 35.72 86.28 34.28C87.4533 32.84 88.52 30.96 89.48 28.64C90.4667 26.32 91.08 24.0667 91.32 21.88C91.32 19.72 90.1867 17.2267 87.92 14.4C88.4533 13.2533 89.1467 12.2267 90 11.32C90.8533 10.3867 91.5733 9.74667 92.16 9.4L93.04 8.84C94.0267 8.84 94.8667 9.54667 95.56 10.96C96.28 12.3467 96.64 13.9867 96.64 15.88C96.64 17.7467 96.1333 20.16 95.12 23.12C94.1067 26.0533 92.8267 28.88 91.28 31.6C89.76 34.32 87.96 36.6533 85.88 38.6C83.8267 40.52 81.8667 41.48 80 41.48C79.04 41.48 78.2 41 77.48 40.04C76.76 39.08 76.3867 37.8533 76.36 36.36C75.2133 37.96 74 39.2133 72.72 40.12C71.44 41.0267 70.16 41.48 68.88 41.48C67.6 41.48 66.5333 40.96 65.68 39.92C64.8267 38.88 64.4 37.6 64.4 36.08ZM65 20.32C65 18.6667 64.84 17.5467 64.52 16.96C64.2267 16.3467 63.64 16.04 62.76 16.04C61.9067 16.04 60.9067 16.52 59.76 17.48C58.64 18.44 58.08 19.6933 58.08 21.24C58.08 22.7867 58.7467 24.0667 60.08 25.08C61.44 26.0933 63.0133 26.6 64.8 26.6C64.9333 24.0667 65 21.9733 65 20.32ZM104.308 25.76C104.308 26.88 103.948 28.8133 103.228 31.56C102.508 34.28 102.148 36.0667 102.148 36.92C102.148 37.7467 102.268 38.16 102.508 38.16C102.668 38.16 103.281 37.9067 104.348 37.4L104.828 37.16L105.508 38.56C105.268 38.7733 104.948 39.04 104.548 39.36C104.148 39.68 103.401 40.12 102.308 40.68C101.215 41.2133 100.201 41.48 99.2681 41.48C98.3348 41.48 97.6015 41.2 97.0681 40.64C96.5348 40.0533 96.2681 39.28 96.2681 38.32C96.2681 37.3333 96.6015 35.6 97.2681 33.12C97.9348 30.6133 98.2681 28.9867 98.2681 28.24C98.2681 27.12 97.9215 26.0667 97.2281 25.08L96.8681 24.6L96.9081 24.08C98.3215 23.68 100.615 23.48 103.788 23.48C104.135 23.88 104.308 24.64 104.308 25.76ZM99.7481 19.12C99.2148 18.5867 98.9481 17.88 98.9481 17C98.9481 16.12 99.3081 15.3467 100.028 14.68C100.775 14.0133 101.628 13.68 102.588 13.68C103.548 13.68 104.295 13.9467 104.828 14.48C105.361 15.0133 105.628 15.72 105.628 16.6C105.628 17.4533 105.241 18.2133 104.468 18.88C103.721 19.5467 102.881 19.88 101.948 19.88C101.015 19.88 100.281 19.6267 99.7481 19.12ZM110.007 41.48C109.1 41.48 108.34 41.1733 107.727 40.56C107.14 39.9467 106.847 39.0933 106.847 38C106.847 36.88 107.5 33.3467 108.807 27.4C110.14 21.4267 110.807 17.12 110.807 14.48L110.567 12.72C112.647 12 114.593 11.64 116.407 11.64C116.673 12.0133 116.807 12.6667 116.807 13.6C116.807 15.7333 116.127 19.8667 114.767 26C113.433 32.1067 112.767 35.6667 112.767 36.68C112.767 37.6667 112.887 38.16 113.127 38.16L115.927 37.16L116.647 38.56C115.74 39.28 114.633 39.9467 113.327 40.56C112.047 41.1733 110.94 41.48 110.007 41.48ZM120.632 41.48C119.725 41.48 118.965 41.1733 118.352 40.56C117.765 39.9467 117.472 39.0933 117.472 38C117.472 36.88 118.125 33.3467 119.432 27.4C120.765 21.4267 121.432 17.12 121.432 14.48L121.192 12.72C123.272 12 125.218 11.64 127.032 11.64C127.298 12.0133 127.432 12.6667 127.432 13.6C127.432 15.7333 126.752 19.8667 125.392 26C124.058 32.1067 123.392 35.6667 123.392 36.68C123.392 37.6667 123.512 38.16 123.752 38.16L126.552 37.16L127.272 38.56C126.365 39.28 125.258 39.9467 123.952 40.56C122.672 41.1733 121.565 41.48 120.632 41.48ZM136.457 25.76C136.457 26.88 136.097 28.8133 135.377 31.56C134.657 34.28 134.297 36.0667 134.297 36.92C134.297 37.7467 134.417 38.16 134.657 38.16C134.817 38.16 135.43 37.9067 136.497 37.4L136.977 37.16L137.657 38.56C137.417 38.7733 137.097 39.04 136.697 39.36C136.297 39.68 135.55 40.12 134.457 40.68C133.363 41.2133 132.35 41.48 131.417 41.48C130.483 41.48 129.75 41.2 129.217 40.64C128.683 40.0533 128.417 39.28 128.417 38.32C128.417 37.3333 128.75 35.6 129.417 33.12C130.083 30.6133 130.417 28.9867 130.417 28.24C130.417 27.12 130.07 26.0667 129.377 25.08L129.017 24.6L129.057 24.08C130.47 23.68 132.763 23.48 135.937 23.48C136.283 23.88 136.457 24.64 136.457 25.76ZM131.897 19.12C131.363 18.5867 131.097 17.88 131.097 17C131.097 16.12 131.457 15.3467 132.177 14.68C132.923 14.0133 133.777 13.68 134.737 13.68C135.697 13.68 136.443 13.9467 136.977 14.48C137.51 15.0133 137.777 15.72 137.777 16.6C137.777 17.4533 137.39 18.2133 136.617 18.88C135.87 19.5467 135.03 19.88 134.097 19.88C133.163 19.88 132.43 19.6267 131.897 19.12Z" fill="white"/>
</svg>
