<svg width="106" height="40" viewBox="0 0 106 40" fill="none" xmlns="http://www.w3.org/2000/svg">
<path d="M19.7417 3.75L5.61584 12.0317L14.4408 17.2183L19.7433 14.1517L25.36 17.2183L34.3858 12.0317L19.7417 3.75Z" stroke="#705772" stroke-linecap="round" stroke-linejoin="round"/>
<path d="M9.22498 17.02V29.6017L19.7416 36.25L30.775 29.8025V16.8775L25.3583 19.8V29.4458L19.7416 25.9208L14.4408 29.475V19.8L9.22498 17.02Z" stroke="#705772" stroke-linecap="round" stroke-linejoin="round"/>
<path d="M46.72 26.064L46.912 20.624C44.864 20.368 43.1467 19.6747 41.76 18.544C40.3733 17.4133 39.68 15.8987 39.68 14C39.68 12.4427 40.448 10.9387 41.984 9.488C43.52 8.016 45.3547 7.28 47.488 7.28C50.624 7.28 52.192 9.31733 52.192 13.392C52.192 14.5867 52.1067 16.4213 51.936 18.896C51.7867 21.3493 51.712 23.2053 51.712 24.464C51.712 25.7227 52.0533 26.352 52.736 26.352C53.1413 26.352 53.728 26.0107 54.496 25.328C55.2853 24.624 55.9467 23.8667 56.48 23.056C56.9493 18.2347 57.184 15.3547 57.184 14.416C57.184 13.4773 57.1733 12.8373 57.152 12.496C57.152 12.1547 57.1307 11.824 57.088 11.504C57.0667 11.184 57.0453 10.9493 57.024 10.8C57.024 10.6293 56.9813 10.4053 56.896 10.128C56.832 9.85067 56.7893 9.69067 56.768 9.648C56.768 9.60533 56.7147 9.424 56.608 9.104C56.5227 8.784 56.48 8.61333 56.48 8.592C57.568 8.016 59.3493 7.57867 61.824 7.28V7.312C62.0587 8.05867 62.176 9.136 62.176 10.544C62.176 11.9307 61.9627 14.352 61.536 17.808C61.1093 21.264 60.896 23.5573 60.896 24.688C60.896 25.7973 61.216 26.352 61.856 26.352C62.5173 26.352 63.3067 25.776 64.224 24.624C65.1627 23.472 66.016 21.968 66.784 20.112C67.5733 18.256 68.064 16.4533 68.256 14.704C68.256 12.976 67.3493 10.9813 65.536 8.72C65.9627 7.80267 66.5173 6.98133 67.2 6.256C67.8827 5.50933 68.4587 4.99733 68.928 4.72L69.632 4.272C70.4213 4.272 71.0933 4.83733 71.648 5.968C72.224 7.07733 72.512 8.38933 72.512 9.904C72.512 11.3973 72.1067 13.328 71.296 15.696C70.4853 18.0427 69.4613 20.304 68.224 22.48C67.008 24.656 65.568 26.5227 63.904 28.08C62.2613 29.616 60.6933 30.384 59.2 30.384C58.432 30.384 57.76 30 57.184 29.232C56.608 28.464 56.3093 27.4827 56.288 26.288C55.3707 27.568 54.4 28.5707 53.376 29.296C52.352 30.0213 51.328 30.384 50.304 30.384C49.28 30.384 48.4267 29.968 47.744 29.136C47.0613 28.304 46.72 27.28 46.72 26.064ZM47.2 13.456C47.2 12.1333 47.072 11.2373 46.816 10.768C46.5813 10.2773 46.112 10.032 45.408 10.032C44.7253 10.032 43.9253 10.416 43.008 11.184C42.112 11.952 41.664 12.9547 41.664 14.192C41.664 15.4293 42.1973 16.4533 43.264 17.264C44.352 18.0747 45.6107 18.48 47.04 18.48C47.1467 16.4533 47.2 14.7787 47.2 13.456ZM78.6465 17.808C78.6465 18.704 78.3585 20.2507 77.7825 22.448C77.2065 24.624 76.9185 26.0533 76.9185 26.736C76.9185 27.3973 77.0145 27.728 77.2065 27.728C77.3345 27.728 77.8252 27.5253 78.6785 27.12L79.0625 26.928L79.6065 28.048C79.4145 28.2187 79.1585 28.432 78.8385 28.688C78.5185 28.944 77.9212 29.296 77.0465 29.744C76.1718 30.1707 75.3612 30.384 74.6145 30.384C73.8678 30.384 73.2812 30.16 72.8545 29.712C72.4278 29.2427 72.2145 28.624 72.2145 27.856C72.2145 27.0667 72.4812 25.68 73.0145 23.696C73.5478 21.6907 73.8145 20.3893 73.8145 19.792C73.8145 18.896 73.5372 18.0533 72.9825 17.264L72.6945 16.88L72.7265 16.464C73.8572 16.144 75.6918 15.984 78.2305 15.984C78.5078 16.304 78.6465 16.912 78.6465 17.808ZM74.9985 12.496C74.5718 12.0693 74.3585 11.504 74.3585 10.8C74.3585 10.096 74.6465 9.47733 75.2225 8.944C75.8198 8.41067 76.5025 8.144 77.2705 8.144C78.0385 8.144 78.6358 8.35733 79.0625 8.784C79.4892 9.21067 79.7025 9.776 79.7025 10.48C79.7025 11.1627 79.3932 11.7707 78.7745 12.304C78.1772 12.8373 77.5052 13.104 76.7585 13.104C76.0118 13.104 75.4252 12.9013 74.9985 12.496ZM83.2053 30.384C82.4799 30.384 81.8719 30.1387 81.3813 29.648C80.9119 29.1573 80.6773 28.4747 80.6773 27.6C80.6773 26.704 81.1999 23.8773 82.2453 19.12C83.3119 14.3413 83.8453 10.896 83.8453 8.784L83.6533 7.376C85.3173 6.8 86.8746 6.512 88.3253 6.512C88.5386 6.81067 88.6453 7.33333 88.6453 8.08C88.6453 9.78667 88.1013 13.0933 87.0133 18C85.9466 22.8853 85.4133 25.7333 85.4133 26.544C85.4133 27.3333 85.5093 27.728 85.7013 27.728L87.9413 26.928L88.5173 28.048C87.7919 28.624 86.9066 29.1573 85.8613 29.648C84.8373 30.1387 83.9519 30.384 83.2053 30.384ZM91.7053 30.384C90.9799 30.384 90.3719 30.1387 89.8813 29.648C89.4119 29.1573 89.1773 28.4747 89.1773 27.6C89.1773 26.704 89.6999 23.8773 90.7453 19.12C91.8119 14.3413 92.3453 10.896 92.3453 8.784L92.1533 7.376C93.8173 6.8 95.3746 6.512 96.8253 6.512C97.0386 6.81067 97.1453 7.33333 97.1453 8.08C97.1453 9.78667 96.6013 13.0933 95.5133 18C94.4466 22.8853 93.9133 25.7333 93.9133 26.544C93.9133 27.3333 94.0093 27.728 94.2013 27.728L96.4413 26.928L97.0173 28.048C96.2919 28.624 95.4066 29.1573 94.3613 29.648C93.3373 30.1387 92.4519 30.384 91.7053 30.384ZM104.365 17.808C104.365 18.704 104.077 20.2507 103.501 22.448C102.925 24.624 102.637 26.0533 102.637 26.736C102.637 27.3973 102.733 27.728 102.925 27.728C103.053 27.728 103.544 27.5253 104.397 27.12L104.781 26.928L105.325 28.048C105.133 28.2187 104.877 28.432 104.557 28.688C104.237 28.944 103.64 29.296 102.765 29.744C101.891 30.1707 101.08 30.384 100.333 30.384C99.5866 30.384 98.9999 30.16 98.5733 29.712C98.1466 29.2427 97.9333 28.624 97.9333 27.856C97.9333 27.0667 98.1999 25.68 98.7333 23.696C99.2666 21.6907 99.5333 20.3893 99.5333 19.792C99.5333 18.896 99.2559 18.0533 98.7013 17.264L98.4133 16.88L98.4453 16.464C99.5759 16.144 101.411 15.984 103.949 15.984C104.227 16.304 104.365 16.912 104.365 17.808ZM100.717 12.496C100.291 12.0693 100.077 11.504 100.077 10.8C100.077 10.096 100.365 9.47733 100.941 8.944C101.539 8.41067 102.221 8.144 102.989 8.144C103.757 8.144 104.355 8.35733 104.781 8.784C105.208 9.21067 105.421 9.776 105.421 10.48C105.421 11.1627 105.112 11.7707 104.493 12.304C103.896 12.8373 103.224 13.104 102.477 13.104C101.731 13.104 101.144 12.9013 100.717 12.496Z" fill="#705772"/>
</svg>
