<svg width="143" height="57" viewBox="0 0 143 57" fill="none" xmlns="http://www.w3.org/2000/svg">
<path d="M32.3579 13.6476L15.9146 56.8766H0L21.4835 0.121216H37.6604C48.0047 0.121216 60.2033 5.15945 53.3088 22.1318C46.4147 39.1058 37.1317 41.4926 29.7049 41.4926H24.6669L29.4404 28.2327C34.7448 27.9682 37.3976 22.9283 38.1911 20.5434C39.8883 15.6702 38.2818 13.3096 32.3579 13.6473V13.6476ZM75.1057 13.6492L58.6658 56.8785H42.7492L64.2324 0.123172H80.4112C90.7536 0.123172 102.954 5.16141 96.058 22.1337C89.1655 39.1077 79.8825 41.4946 72.4557 41.4946H67.4167L72.1901 28.2347C77.4962 27.9702 80.1473 22.9306 80.9425 20.5454C82.3253 16.3037 81.7957 13.2434 75.106 13.6492H75.1057ZM96.6356 27.9805C90.9441 50.6184 99.5894 56.8766 112.768 56.8766H121.785L127.884 40.4333H117.011C110.912 40.4333 111.306 34.863 113.43 27.9685L96.6356 27.9805ZM114.422 25.1859C117.132 19.3268 122.085 13.6476 128.681 13.6476H138.226L143 0.123172H128.15C119.515 0.123172 104.17 1.96234 97.3911 25.1808L114.422 25.1859Z" fill="#868996"/>
</svg>
