<svg width="16" height="20" viewBox="0 0 16 20" fill="none" xmlns="http://www.w3.org/2000/svg">
<path d="M13.28 6.72C13.4205 6.86063 13.4993 7.05125 13.4993 7.25C13.4993 7.44875 13.4205 7.63937 13.28 7.78L11.28 9.78C11.1394 9.92045 10.9488 9.99934 10.75 9.99934C10.5512 9.99934 10.3606 9.92045 10.22 9.78L9.22 8.78C9.14631 8.71134 9.08721 8.62854 9.04622 8.53654C9.00523 8.44454 8.98318 8.34523 8.98141 8.24452C8.97963 8.14382 8.99816 8.04379 9.03588 7.9504C9.0736 7.85701 9.12974 7.77218 9.20096 7.70096C9.27218 7.62974 9.35701 7.5736 9.4504 7.53588C9.54379 7.49816 9.64382 7.47963 9.74452 7.48141C9.84523 7.48318 9.94454 7.50523 10.0365 7.54622C10.1285 7.58721 10.2113 7.64631 10.28 7.72L10.75 8.19L12.22 6.72C12.3606 6.57955 12.5512 6.50066 12.75 6.50066C12.9488 6.50066 13.1394 6.57955 13.28 6.72ZM13.28 13.28C13.3537 13.2113 13.4128 13.1285 13.4538 13.0365C13.4948 12.9445 13.5168 12.8452 13.5186 12.7445C13.5204 12.6438 13.5018 12.5438 13.4641 12.4504C13.4264 12.357 13.3703 12.2722 13.299 12.201C13.2278 12.1297 13.143 12.0736 13.0496 12.0359C12.9562 11.9982 12.8562 11.9796 12.7555 11.9814C12.6548 11.9832 12.5555 12.0052 12.4635 12.0462C12.3715 12.0872 12.2887 12.1463 12.22 12.22L10.75 13.69L10.28 13.22C10.2113 13.1463 10.1285 13.0872 10.0365 13.0462C9.94454 13.0052 9.84523 12.9832 9.74452 12.9814C9.64382 12.9796 9.54379 12.9982 9.4504 13.0359C9.35701 13.0736 9.27218 13.1297 9.20096 13.201C9.12974 13.2722 9.0736 13.357 9.03588 13.4504C8.99816 13.5438 8.97963 13.6438 8.98141 13.7445C8.98318 13.8452 9.00523 13.9445 9.04622 14.0365C9.08721 14.1285 9.14631 14.2113 9.22 14.28L10.22 15.28C10.3606 15.4205 10.5512 15.4993 10.75 15.4993C10.9488 15.4993 11.1394 15.4205 11.28 15.28L13.28 13.28ZM3 8.25C3 8.05109 3.07902 7.86032 3.21967 7.71967C3.36032 7.57902 3.55109 7.5 3.75 7.5H7.25C7.44891 7.5 7.63968 7.57902 7.78033 7.71967C7.92098 7.86032 8 8.05109 8 8.25C8 8.44891 7.92098 8.63968 7.78033 8.78033C7.63968 8.92098 7.44891 9 7.25 9H3.75C3.55109 9 3.36032 8.92098 3.21967 8.78033C3.07902 8.63968 3 8.44891 3 8.25ZM3.75 13C3.55109 13 3.36032 13.079 3.21967 13.2197C3.07902 13.3603 3 13.5511 3 13.75C3 13.9489 3.07902 14.1397 3.21967 14.2803C3.36032 14.421 3.55109 14.5 3.75 14.5H7.25C7.44891 14.5 7.63968 14.421 7.78033 14.2803C7.92098 14.1397 8 13.9489 8 13.75C8 13.5511 7.92098 13.3603 7.78033 13.2197C7.63968 13.079 7.44891 13 7.25 13H3.75ZM11.986 2C11.9245 1.44999 11.6625 0.941936 11.25 0.572972C10.8375 0.204007 10.3034 1.67206e-05 9.75 0H6.25C5.69656 1.67206e-05 5.16255 0.204007 4.75004 0.572972C4.33754 0.941936 4.07549 1.44999 4.014 2H2.25C1.65326 2 1.08097 2.23705 0.65901 2.65901C0.237053 3.08097 0 3.65326 0 4.25V17.75C0 18.3467 0.237053 18.919 0.65901 19.341C1.08097 19.7629 1.65326 20 2.25 20H13.75C14.0455 20 14.3381 19.9418 14.611 19.8287C14.884 19.7157 15.1321 19.5499 15.341 19.341C15.5499 19.1321 15.7157 18.884 15.8287 18.611C15.9418 18.3381 16 18.0455 16 17.75V4.25C16 3.95453 15.9418 3.66194 15.8287 3.38896C15.7157 3.11598 15.5499 2.86794 15.341 2.65901C15.1321 2.45008 14.884 2.28434 14.611 2.17127C14.3381 2.0582 14.0455 2 13.75 2H11.986ZM6.25 4.5H9.75C10.53 4.5 11.217 4.103 11.621 3.5H13.75C13.9489 3.5 14.1397 3.57902 14.2803 3.71967C14.421 3.86032 14.5 4.05109 14.5 4.25V17.75C14.5 17.9489 14.421 18.1397 14.2803 18.2803C14.1397 18.421 13.9489 18.5 13.75 18.5H2.25C2.05109 18.5 1.86032 18.421 1.71967 18.2803C1.57902 18.1397 1.5 17.9489 1.5 17.75V4.25C1.5 4.05109 1.57902 3.86032 1.71967 3.71967C1.86032 3.57902 2.05109 3.5 2.25 3.5H4.379C4.783 4.103 5.47 4.5 6.25 4.5ZM6.25 1.5H9.75C9.94891 1.5 10.1397 1.57902 10.2803 1.71967C10.421 1.86032 10.5 2.05109 10.5 2.25C10.5 2.44891 10.421 2.63968 10.2803 2.78033C10.1397 2.92098 9.94891 3 9.75 3H6.25C6.05109 3 5.86032 2.92098 5.71967 2.78033C5.57902 2.63968 5.5 2.44891 5.5 2.25C5.5 2.05109 5.57902 1.86032 5.71967 1.71967C5.86032 1.57902 6.05109 1.5 6.25 1.5Z" fill="white"/>
</svg>
